<mxfile host="app.diagrams.net" modified="2023-09-16T23:59:47.963Z" agent="Mozilla/5.0 (Windows NT 10.0; Win64; x64) AppleWebKit/537.36 (KHTML, like Gecko) Chrome/116.0.0.0 Safari/537.36" etag="BoI_9kDmqS5J2L0BjD01" version="21.7.5" type="device">
  <diagram id="C5RBs43oDa-KdzZeNtuy" name="Page-1">
    <mxGraphModel dx="809" dy="833" grid="1" gridSize="10" guides="1" tooltips="1" connect="1" arrows="1" fold="1" page="1" pageScale="1" pageWidth="827" pageHeight="1169" background="none" math="0" shadow="0">
      <root>
        <mxCell id="WIyWlLk6GJQsqaUBKTNV-0" />
        <mxCell id="WIyWlLk6GJQsqaUBKTNV-1" parent="WIyWlLk6GJQsqaUBKTNV-0" />
        <mxCell id="5pXr0R31rmwVF_x6JBgt-3" value="" style="edgeStyle=orthogonalEdgeStyle;rounded=0;orthogonalLoop=1;jettySize=auto;html=1;fillColor=#dae8fc;strokeColor=#6c8ebf;" parent="WIyWlLk6GJQsqaUBKTNV-1" source="5pXr0R31rmwVF_x6JBgt-1" target="5pXr0R31rmwVF_x6JBgt-2" edge="1">
          <mxGeometry relative="1" as="geometry" />
        </mxCell>
        <mxCell id="5pXr0R31rmwVF_x6JBgt-1" value="I" style="ellipse;whiteSpace=wrap;html=1;fillColor=#dae8fc;strokeColor=#6c8ebf;" parent="WIyWlLk6GJQsqaUBKTNV-1" vertex="1">
          <mxGeometry x="355" y="179" width="50" height="50" as="geometry" />
        </mxCell>
        <mxCell id="5gnvTc-YlHs9Nw9wisjp-1" value="" style="edgeStyle=orthogonalEdgeStyle;rounded=0;orthogonalLoop=1;jettySize=auto;html=1;fillColor=#dae8fc;strokeColor=#6c8ebf;" parent="WIyWlLk6GJQsqaUBKTNV-1" source="5pXr0R31rmwVF_x6JBgt-2" target="5gnvTc-YlHs9Nw9wisjp-0" edge="1">
          <mxGeometry relative="1" as="geometry" />
        </mxCell>
        <mxCell id="5pXr0R31rmwVF_x6JBgt-2" value="LegajoAlumno,CodigoCarrera,CodigoMateria,Modalidad,Horario" style="shape=trapezoid;perimeter=trapezoidPerimeter;whiteSpace=wrap;html=1;fixedSize=1;direction=west;fillColor=#dae8fc;strokeColor=#6c8ebf;" parent="WIyWlLk6GJQsqaUBKTNV-1" vertex="1">
          <mxGeometry x="110" y="259" width="540" height="30" as="geometry" />
        </mxCell>
        <mxCell id="5gnvTc-YlHs9Nw9wisjp-45" value="" style="edgeStyle=orthogonalEdgeStyle;rounded=0;orthogonalLoop=1;jettySize=auto;html=1;fillColor=#dae8fc;strokeColor=#6c8ebf;" parent="WIyWlLk6GJQsqaUBKTNV-1" edge="1">
          <mxGeometry relative="1" as="geometry">
            <mxPoint x="379.51" y="1901" as="sourcePoint" />
            <mxPoint x="379.51" y="1968" as="targetPoint" />
            <Array as="points">
              <mxPoint x="379.51" y="1880" />
            </Array>
          </mxGeometry>
        </mxCell>
        <mxCell id="5pXr0R31rmwVF_x6JBgt-4" value="legajoAlumno != 0" style="swimlane;whiteSpace=wrap;html=1;fillColor=#dae8fc;strokeColor=#6c8ebf;startSize=20;points=[[0,0,0,0,0],[0,0.25,0,0,0],[0,0.5,0,0,0],[0,0.75,0,0,0],[0,1,0,0,0],[0.25,0,0,0,0],[0.25,1,0,0,0],[0.5,0,0,0,0],[0.5,1,0,0,0],[0.75,0,0,0,0],[0.75,1,0,0,0],[1,0,0,0,0],[1,0.25,0,0,0],[1,0.5,0,0,0],[1,0.75,0,0,0],[1,1,0,0,0]];" parent="WIyWlLk6GJQsqaUBKTNV-1" vertex="1">
          <mxGeometry x="30" y="371" width="750" height="1509" as="geometry" />
        </mxCell>
        <mxCell id="5gnvTc-YlHs9Nw9wisjp-41" value="" style="edgeStyle=orthogonalEdgeStyle;rounded=0;orthogonalLoop=1;jettySize=auto;html=1;fillColor=#dae8fc;strokeColor=#6c8ebf;" parent="5pXr0R31rmwVF_x6JBgt-4" source="5pXr0R31rmwVF_x6JBgt-6" edge="1">
          <mxGeometry relative="1" as="geometry">
            <mxPoint x="345" y="960" as="targetPoint" />
          </mxGeometry>
        </mxCell>
        <mxCell id="5pXr0R31rmwVF_x6JBgt-6" value="&lt;div&gt;CodigoActualCarrera == CodigoCarrera &amp;amp;&amp;amp;&amp;nbsp;&lt;span style=&quot;background-color: initial;&quot;&gt;LegajoAlumno != 0&lt;/span&gt;&lt;/div&gt;" style="swimlane;whiteSpace=wrap;html=1;startSize=23;fillColor=#dae8fc;strokeColor=#6c8ebf;" parent="5pXr0R31rmwVF_x6JBgt-4" vertex="1">
          <mxGeometry x="40" y="207" width="610" height="721" as="geometry" />
        </mxCell>
        <mxCell id="5pXr0R31rmwVF_x6JBgt-17" style="edgeStyle=orthogonalEdgeStyle;rounded=0;orthogonalLoop=1;jettySize=auto;html=1;exitX=1;exitY=0.5;exitDx=0;exitDy=0;entryX=0.5;entryY=0;entryDx=0;entryDy=0;endArrow=none;endFill=0;fillColor=#dae8fc;strokeColor=#6c8ebf;" parent="5pXr0R31rmwVF_x6JBgt-6" source="5pXr0R31rmwVF_x6JBgt-12" target="5pXr0R31rmwVF_x6JBgt-14" edge="1">
          <mxGeometry relative="1" as="geometry" />
        </mxCell>
        <mxCell id="yonmYlfciaBzX_8r0v4c-3" style="edgeStyle=orthogonalEdgeStyle;rounded=0;orthogonalLoop=1;jettySize=auto;html=1;exitX=0;exitY=0.5;exitDx=0;exitDy=0;entryX=0.5;entryY=1;entryDx=0;entryDy=0;fillColor=#dae8fc;strokeColor=#6c8ebf;" parent="5pXr0R31rmwVF_x6JBgt-6" source="5pXr0R31rmwVF_x6JBgt-12" target="5pXr0R31rmwVF_x6JBgt-14" edge="1">
          <mxGeometry relative="1" as="geometry" />
        </mxCell>
        <mxCell id="5pXr0R31rmwVF_x6JBgt-12" value="LegajoAlumno != 0" style="rhombus;whiteSpace=wrap;html=1;fillColor=#dae8fc;strokeColor=#6c8ebf;" parent="5pXr0R31rmwVF_x6JBgt-6" vertex="1">
          <mxGeometry x="262" y="580" width="110" height="80" as="geometry" />
        </mxCell>
        <mxCell id="5pXr0R31rmwVF_x6JBgt-14" value="&lt;div&gt;CodigoCarrera,CodigoMateria,&lt;/div&gt;&lt;div&gt;Modalidad,Horario&lt;/div&gt;" style="shape=trapezoid;perimeter=trapezoidPerimeter;whiteSpace=wrap;html=1;fixedSize=1;direction=west;fillColor=#dae8fc;strokeColor=#6c8ebf;" parent="5pXr0R31rmwVF_x6JBgt-6" vertex="1">
          <mxGeometry x="62.00000000000001" y="660" width="200" height="30" as="geometry" />
        </mxCell>
        <mxCell id="5gnvTc-YlHs9Nw9wisjp-30" value="" style="edgeStyle=orthogonalEdgeStyle;rounded=0;orthogonalLoop=1;jettySize=auto;html=1;fillColor=#dae8fc;strokeColor=#6c8ebf;" parent="5pXr0R31rmwVF_x6JBgt-6" target="5pXr0R31rmwVF_x6JBgt-12" edge="1">
          <mxGeometry relative="1" as="geometry">
            <mxPoint x="317" y="550" as="sourcePoint" />
          </mxGeometry>
        </mxCell>
        <mxCell id="5pXr0R31rmwVF_x6JBgt-11" value="LegajoAlumno" style="shape=trapezoid;perimeter=trapezoidPerimeter;whiteSpace=wrap;html=1;fixedSize=1;direction=west;fillColor=#dae8fc;strokeColor=#6c8ebf;" parent="5pXr0R31rmwVF_x6JBgt-6" vertex="1">
          <mxGeometry x="257" y="531" width="120" height="30" as="geometry" />
        </mxCell>
        <mxCell id="yonmYlfciaBzX_8r0v4c-0" style="edgeStyle=orthogonalEdgeStyle;rounded=0;orthogonalLoop=1;jettySize=auto;html=1;exitX=0.5;exitY=0;exitDx=0;exitDy=0;fillColor=#dae8fc;strokeColor=#6c8ebf;" parent="5pXr0R31rmwVF_x6JBgt-6" edge="1">
          <mxGeometry relative="1" as="geometry">
            <mxPoint x="317" y="550" as="sourcePoint" />
            <mxPoint x="317" y="550" as="targetPoint" />
          </mxGeometry>
        </mxCell>
        <mxCell id="5gnvTc-YlHs9Nw9wisjp-39" value="" style="edgeStyle=orthogonalEdgeStyle;rounded=0;orthogonalLoop=1;jettySize=auto;html=1;fillColor=#dae8fc;strokeColor=#6c8ebf;" parent="5pXr0R31rmwVF_x6JBgt-6" source="5gnvTc-YlHs9Nw9wisjp-15" target="5gnvTc-YlHs9Nw9wisjp-16" edge="1">
          <mxGeometry relative="1" as="geometry" />
        </mxCell>
        <mxCell id="5gnvTc-YlHs9Nw9wisjp-15" value="contadorCarrera&amp;nbsp;++" style="whiteSpace=wrap;html=1;fillColor=#dae8fc;strokeColor=#6c8ebf;" parent="5pXr0R31rmwVF_x6JBgt-6" vertex="1">
          <mxGeometry x="205" y="40" width="200" height="30" as="geometry" />
        </mxCell>
        <mxCell id="5gnvTc-YlHs9Nw9wisjp-20" style="edgeStyle=orthogonalEdgeStyle;rounded=0;orthogonalLoop=1;jettySize=auto;html=1;exitX=0;exitY=0.5;exitDx=0;exitDy=0;entryX=0.402;entryY=0.1;entryDx=0;entryDy=0;entryPerimeter=0;fillColor=#f8cecc;strokeColor=#b85450;" parent="5pXr0R31rmwVF_x6JBgt-6" source="5gnvTc-YlHs9Nw9wisjp-16" target="5gnvTc-YlHs9Nw9wisjp-19" edge="1">
          <mxGeometry relative="1" as="geometry" />
        </mxCell>
        <mxCell id="5gnvTc-YlHs9Nw9wisjp-21" style="edgeStyle=orthogonalEdgeStyle;rounded=0;orthogonalLoop=1;jettySize=auto;html=1;exitX=1;exitY=0.5;exitDx=0;exitDy=0;entryX=0.409;entryY=0.972;entryDx=0;entryDy=0;entryPerimeter=0;endArrow=none;endFill=0;fillColor=#f8cecc;strokeColor=#b85450;" parent="5pXr0R31rmwVF_x6JBgt-6" source="5gnvTc-YlHs9Nw9wisjp-16" target="5gnvTc-YlHs9Nw9wisjp-19" edge="1">
          <mxGeometry relative="1" as="geometry" />
        </mxCell>
        <mxCell id="5gnvTc-YlHs9Nw9wisjp-16" value="Modalidad == &#39;D&#39;" style="rhombus;whiteSpace=wrap;html=1;fillColor=#f8cecc;strokeColor=#b85450;" parent="5pXr0R31rmwVF_x6JBgt-6" vertex="1">
          <mxGeometry x="244.92000000000002" y="100" width="120" height="80" as="geometry" />
        </mxCell>
        <mxCell id="5gnvTc-YlHs9Nw9wisjp-19" value="contadorCarrerasADistancias++" style="whiteSpace=wrap;html=1;fillColor=#f8cecc;strokeColor=#b85450;" parent="5pXr0R31rmwVF_x6JBgt-6" vertex="1">
          <mxGeometry x="64.92000000000002" y="190" width="200" height="30" as="geometry" />
        </mxCell>
        <mxCell id="5gnvTc-YlHs9Nw9wisjp-40" value="" style="edgeStyle=orthogonalEdgeStyle;rounded=0;orthogonalLoop=1;jettySize=auto;html=1;fillColor=#dae8fc;strokeColor=#6c8ebf;" parent="5pXr0R31rmwVF_x6JBgt-6" edge="1">
          <mxGeometry relative="1" as="geometry">
            <mxPoint x="304.62" y="240" as="sourcePoint" />
            <mxPoint x="305" y="263" as="targetPoint" />
          </mxGeometry>
        </mxCell>
        <mxCell id="V2eRFCbEdA1scItEcbjX-22" value="horario" style="triangle;whiteSpace=wrap;html=1;direction=north;" vertex="1" parent="5pXr0R31rmwVF_x6JBgt-6">
          <mxGeometry x="4.92" y="263" width="600" height="19" as="geometry" />
        </mxCell>
        <mxCell id="V2eRFCbEdA1scItEcbjX-24" value="&#39;M&#39;" style="rounded=1;whiteSpace=wrap;html=1;" vertex="1" parent="5pXr0R31rmwVF_x6JBgt-6">
          <mxGeometry x="55" y="287" width="38" height="19" as="geometry" />
        </mxCell>
        <mxCell id="V2eRFCbEdA1scItEcbjX-25" value="&#39;T&#39;" style="rounded=1;whiteSpace=wrap;html=1;" vertex="1" parent="5pXr0R31rmwVF_x6JBgt-6">
          <mxGeometry x="281" y="287" width="38" height="19" as="geometry" />
        </mxCell>
        <mxCell id="V2eRFCbEdA1scItEcbjX-26" value="&#39;N&#39;" style="rounded=1;whiteSpace=wrap;html=1;" vertex="1" parent="5pXr0R31rmwVF_x6JBgt-6">
          <mxGeometry x="518.5" y="287" width="38" height="19" as="geometry" />
        </mxCell>
        <mxCell id="V2eRFCbEdA1scItEcbjX-29" value="" style="endArrow=classic;html=1;rounded=0;exitX=0.5;exitY=1;exitDx=0;exitDy=0;" edge="1" parent="5pXr0R31rmwVF_x6JBgt-6" source="V2eRFCbEdA1scItEcbjX-26">
          <mxGeometry width="50" height="50" relative="1" as="geometry">
            <mxPoint x="560.5" y="320" as="sourcePoint" />
            <mxPoint x="538" y="341" as="targetPoint" />
          </mxGeometry>
        </mxCell>
        <mxCell id="V2eRFCbEdA1scItEcbjX-40" style="edgeStyle=orthogonalEdgeStyle;rounded=0;orthogonalLoop=1;jettySize=auto;html=1;endArrow=none;endFill=0;" edge="1" parent="5pXr0R31rmwVF_x6JBgt-6" source="V2eRFCbEdA1scItEcbjX-30">
          <mxGeometry relative="1" as="geometry">
            <mxPoint x="132" y="381" as="targetPoint" />
          </mxGeometry>
        </mxCell>
        <mxCell id="V2eRFCbEdA1scItEcbjX-30" value="&lt;font style=&quot;font-size: 10px;&quot;&gt;contadorTurnoManiana ++&lt;/font&gt;" style="whiteSpace=wrap;html=1;" vertex="1" parent="5pXr0R31rmwVF_x6JBgt-6">
          <mxGeometry x="8.5" y="345.5" width="125" height="14.5" as="geometry" />
        </mxCell>
        <mxCell id="V2eRFCbEdA1scItEcbjX-41" style="edgeStyle=orthogonalEdgeStyle;rounded=0;orthogonalLoop=1;jettySize=auto;html=1;endArrow=none;endFill=0;" edge="1" parent="5pXr0R31rmwVF_x6JBgt-6">
          <mxGeometry relative="1" as="geometry">
            <mxPoint x="132" y="380" as="targetPoint" />
            <mxPoint x="300.0344827586207" y="359.0000000000002" as="sourcePoint" />
            <Array as="points">
              <mxPoint x="300" y="380" />
            </Array>
          </mxGeometry>
        </mxCell>
        <mxCell id="V2eRFCbEdA1scItEcbjX-33" value="&lt;font style=&quot;font-size: 10px;&quot;&gt;contadorTurnoTarde ++&lt;/font&gt;" style="whiteSpace=wrap;html=1;" vertex="1" parent="5pXr0R31rmwVF_x6JBgt-6">
          <mxGeometry x="237.5" y="345.5" width="125" height="14.5" as="geometry" />
        </mxCell>
        <mxCell id="V2eRFCbEdA1scItEcbjX-43" style="edgeStyle=orthogonalEdgeStyle;rounded=0;orthogonalLoop=1;jettySize=auto;html=1;endArrow=none;endFill=0;" edge="1" parent="5pXr0R31rmwVF_x6JBgt-6">
          <mxGeometry relative="1" as="geometry">
            <mxPoint x="541.4999999999998" y="381" as="targetPoint" />
            <mxPoint x="541.52" y="355.5" as="sourcePoint" />
          </mxGeometry>
        </mxCell>
        <mxCell id="V2eRFCbEdA1scItEcbjX-34" value="&lt;font style=&quot;font-size: 10px;&quot;&gt;contadorTurnoNoche ++&lt;/font&gt;" style="whiteSpace=wrap;html=1;" vertex="1" parent="5pXr0R31rmwVF_x6JBgt-6">
          <mxGeometry x="475" y="341" width="125" height="14.5" as="geometry" />
        </mxCell>
        <mxCell id="V2eRFCbEdA1scItEcbjX-45" value="" style="endArrow=none;html=1;rounded=0;" edge="1" parent="5pXr0R31rmwVF_x6JBgt-6">
          <mxGeometry width="50" height="50" relative="1" as="geometry">
            <mxPoint x="301" y="380" as="sourcePoint" />
            <mxPoint x="542" y="380" as="targetPoint" />
          </mxGeometry>
        </mxCell>
        <mxCell id="V2eRFCbEdA1scItEcbjX-27" value="" style="endArrow=classic;html=1;rounded=0;exitX=0.5;exitY=1;exitDx=0;exitDy=0;" edge="1" parent="5pXr0R31rmwVF_x6JBgt-6">
          <mxGeometry width="50" height="50" relative="1" as="geometry">
            <mxPoint x="73.5" y="306.0000000000002" as="sourcePoint" />
            <mxPoint x="73.5" y="342" as="targetPoint" />
            <Array as="points">
              <mxPoint x="73.5" y="322" />
            </Array>
          </mxGeometry>
        </mxCell>
        <mxCell id="5gnvTc-YlHs9Nw9wisjp-34" value="" style="edgeStyle=orthogonalEdgeStyle;rounded=0;orthogonalLoop=1;jettySize=auto;html=1;fillColor=#dae8fc;strokeColor=#6c8ebf;" parent="5pXr0R31rmwVF_x6JBgt-4" source="5pXr0R31rmwVF_x6JBgt-9" target="5gnvTc-YlHs9Nw9wisjp-14" edge="1">
          <mxGeometry relative="1" as="geometry" />
        </mxCell>
        <mxCell id="5pXr0R31rmwVF_x6JBgt-9" value="CodigoActualCarrera=CodigoCarrera" style="whiteSpace=wrap;html=1;fillColor=#dae8fc;strokeColor=#6c8ebf;" parent="5pXr0R31rmwVF_x6JBgt-4" vertex="1">
          <mxGeometry x="185" y="49" width="330" height="30" as="geometry" />
        </mxCell>
        <mxCell id="5gnvTc-YlHs9Nw9wisjp-38" style="edgeStyle=orthogonalEdgeStyle;rounded=0;orthogonalLoop=1;jettySize=auto;html=1;exitX=0.5;exitY=1;exitDx=0;exitDy=0;entryX=0.511;entryY=-0.003;entryDx=0;entryDy=0;entryPerimeter=0;fillColor=#dae8fc;strokeColor=#6c8ebf;" parent="5pXr0R31rmwVF_x6JBgt-4" source="5gnvTc-YlHs9Nw9wisjp-2" target="5pXr0R31rmwVF_x6JBgt-6" edge="1">
          <mxGeometry relative="1" as="geometry" />
        </mxCell>
        <mxCell id="5gnvTc-YlHs9Nw9wisjp-2" value="contadorCarareasADistancia = 0" style="whiteSpace=wrap;html=1;fillColor=#f8cecc;strokeColor=#b85450;" parent="5pXr0R31rmwVF_x6JBgt-4" vertex="1">
          <mxGeometry x="250" y="149" width="200" height="30" as="geometry" />
        </mxCell>
        <mxCell id="5gnvTc-YlHs9Nw9wisjp-36" value="" style="edgeStyle=orthogonalEdgeStyle;rounded=0;orthogonalLoop=1;jettySize=auto;html=1;fillColor=#dae8fc;strokeColor=#6c8ebf;" parent="5pXr0R31rmwVF_x6JBgt-4" source="5gnvTc-YlHs9Nw9wisjp-14" target="5gnvTc-YlHs9Nw9wisjp-2" edge="1">
          <mxGeometry relative="1" as="geometry" />
        </mxCell>
        <mxCell id="5gnvTc-YlHs9Nw9wisjp-14" value="contadorCarrera= 0" style="whiteSpace=wrap;html=1;fillColor=#dae8fc;strokeColor=#6c8ebf;" parent="5pXr0R31rmwVF_x6JBgt-4" vertex="1">
          <mxGeometry x="250" y="99" width="200" height="30" as="geometry" />
        </mxCell>
        <mxCell id="5gnvTc-YlHs9Nw9wisjp-25" value="" style="edgeStyle=orthogonalEdgeStyle;rounded=0;orthogonalLoop=1;jettySize=auto;html=1;fillColor=#f8cecc;strokeColor=#b85450;exitX=0;exitY=0.5;exitDx=0;exitDy=0;" parent="5pXr0R31rmwVF_x6JBgt-4" edge="1">
          <mxGeometry relative="1" as="geometry">
            <Array as="points">
              <mxPoint x="137" y="1000" />
            </Array>
            <mxPoint x="232" y="990" as="sourcePoint" />
            <mxPoint x="137" y="1057" as="targetPoint" />
          </mxGeometry>
        </mxCell>
        <mxCell id="5gnvTc-YlHs9Nw9wisjp-28" style="edgeStyle=orthogonalEdgeStyle;rounded=0;orthogonalLoop=1;jettySize=auto;html=1;exitX=1;exitY=0.5;exitDx=0;exitDy=0;entryX=0.5;entryY=1;entryDx=0;entryDy=0;endArrow=none;endFill=0;fillColor=#f8cecc;strokeColor=#b85450;" parent="5pXr0R31rmwVF_x6JBgt-4" source="5gnvTc-YlHs9Nw9wisjp-23" target="5gnvTc-YlHs9Nw9wisjp-26" edge="1">
          <mxGeometry relative="1" as="geometry">
            <Array as="points">
              <mxPoint x="477" y="1000" />
              <mxPoint x="477" y="1160" />
              <mxPoint x="137" y="1160" />
            </Array>
          </mxGeometry>
        </mxCell>
        <mxCell id="5gnvTc-YlHs9Nw9wisjp-23" value="contadorCarrerasADistancia &amp;gt; maximasInscripcionesADistancia&amp;nbsp;" style="rhombus;whiteSpace=wrap;html=1;fillColor=#f8cecc;strokeColor=#b85450;" parent="5pXr0R31rmwVF_x6JBgt-4" vertex="1">
          <mxGeometry x="232" y="960" width="225" height="80" as="geometry" />
        </mxCell>
        <mxCell id="5gnvTc-YlHs9Nw9wisjp-27" value="" style="edgeStyle=orthogonalEdgeStyle;rounded=0;orthogonalLoop=1;jettySize=auto;html=1;fillColor=#f8cecc;strokeColor=#b85450;" parent="5pXr0R31rmwVF_x6JBgt-4" source="5gnvTc-YlHs9Nw9wisjp-24" target="5gnvTc-YlHs9Nw9wisjp-26" edge="1">
          <mxGeometry relative="1" as="geometry" />
        </mxCell>
        <mxCell id="5gnvTc-YlHs9Nw9wisjp-24" value="maximasInscripcionesADistancia&amp;nbsp; = contadorCarrerasADistancia&amp;nbsp;" style="whiteSpace=wrap;html=1;fillColor=#f8cecc;strokeColor=#b85450;" parent="5pXr0R31rmwVF_x6JBgt-4" vertex="1">
          <mxGeometry x="42" y="1058" width="190" height="40" as="geometry" />
        </mxCell>
        <mxCell id="5gnvTc-YlHs9Nw9wisjp-26" value="carrerasMasInscripcionesADistancia =&amp;nbsp;CodigoActualCarrera" style="whiteSpace=wrap;html=1;fillColor=#f8cecc;strokeColor=#b85450;" parent="5pXr0R31rmwVF_x6JBgt-4" vertex="1">
          <mxGeometry x="42" y="1117" width="190" height="40" as="geometry" />
        </mxCell>
        <mxCell id="5gnvTc-YlHs9Nw9wisjp-33" value="" style="edgeStyle=orthogonalEdgeStyle;rounded=0;orthogonalLoop=1;jettySize=auto;html=1;fillColor=#dae8fc;strokeColor=#6c8ebf;" parent="5pXr0R31rmwVF_x6JBgt-4" edge="1">
          <mxGeometry relative="1" as="geometry">
            <mxPoint x="349.74" y="19" as="sourcePoint" />
            <mxPoint x="349.74" y="49" as="targetPoint" />
          </mxGeometry>
        </mxCell>
        <mxCell id="V2eRFCbEdA1scItEcbjX-35" value="contadorCarrera&amp;nbsp;" style="shape=trapezoid;perimeter=trapezoidPerimeter;whiteSpace=wrap;html=1;fixedSize=1;fillColor=#dae8fc;strokeColor=#6c8ebf;" vertex="1" parent="5pXr0R31rmwVF_x6JBgt-4">
          <mxGeometry x="290" y="1419" width="120" height="30" as="geometry" />
        </mxCell>
        <mxCell id="V2eRFCbEdA1scItEcbjX-47" value="&lt;font style=&quot;font-size: 9px;&quot;&gt;&lt;font style=&quot;&quot;&gt;porcentajeTurnoManiana = contadorTurnoManiana * 100 / (contadorTurnomaniana +&amp;nbsp;&lt;/font&gt;contadorTurnoTarde + contadorTurnoNoche)&lt;/font&gt;" style="whiteSpace=wrap;html=1;" vertex="1" parent="5pXr0R31rmwVF_x6JBgt-4">
          <mxGeometry x="85" y="1170" width="530" height="14.5" as="geometry" />
        </mxCell>
        <mxCell id="V2eRFCbEdA1scItEcbjX-51" value="porcentajeTurnoManiana, porcentajeTurnoTarde, porcentajeTurnoNoche" style="shape=trapezoid;perimeter=trapezoidPerimeter;whiteSpace=wrap;html=1;fixedSize=1;" vertex="1" parent="5pXr0R31rmwVF_x6JBgt-4">
          <mxGeometry x="142.75" y="1462" width="414.5" height="30" as="geometry" />
        </mxCell>
        <mxCell id="V2eRFCbEdA1scItEcbjX-52" value="&lt;font style=&quot;font-size: 10px;&quot;&gt;contadorTurnoTarde = 0&lt;/font&gt;" style="whiteSpace=wrap;html=1;" vertex="1" parent="5pXr0R31rmwVF_x6JBgt-4">
          <mxGeometry x="472" y="141" width="128" height="14.5" as="geometry" />
        </mxCell>
        <mxCell id="V2eRFCbEdA1scItEcbjX-53" value="&lt;font style=&quot;font-size: 10px;&quot;&gt;contadorTurnoNoche = 0&lt;/font&gt;" style="whiteSpace=wrap;html=1;" vertex="1" parent="5pXr0R31rmwVF_x6JBgt-4">
          <mxGeometry x="472" y="162.25" width="128" height="14.5" as="geometry" />
        </mxCell>
        <mxCell id="V2eRFCbEdA1scItEcbjX-54" value="&lt;font style=&quot;font-size: 10px;&quot;&gt;contadorTurnoManiana = 0&lt;/font&gt;" style="whiteSpace=wrap;html=1;" vertex="1" parent="5pXr0R31rmwVF_x6JBgt-4">
          <mxGeometry x="472" y="120" width="128" height="14.5" as="geometry" />
        </mxCell>
        <mxCell id="V2eRFCbEdA1scItEcbjX-55" value="&lt;font style=&quot;font-size: 9px;&quot;&gt;&lt;font style=&quot;&quot;&gt;porcentajeTurnoTarde = contadorTurnoTarde * 100 / (contadorTurnomaniana +&amp;nbsp;&lt;/font&gt;contadorTurnoTarde + contadorTurnoNoche)&lt;/font&gt;" style="whiteSpace=wrap;html=1;" vertex="1" parent="5pXr0R31rmwVF_x6JBgt-4">
          <mxGeometry x="85" y="1190" width="530" height="14.5" as="geometry" />
        </mxCell>
        <mxCell id="V2eRFCbEdA1scItEcbjX-56" value="&lt;font style=&quot;font-size: 9px;&quot;&gt;&lt;font style=&quot;&quot;&gt;porcentajeTurnoNoche = contadorTurnoNoche * 100 / (contadorTurnomaniana +&amp;nbsp;&lt;/font&gt;contadorTurnoTarde + contadorTurnoNoche)&lt;/font&gt;" style="whiteSpace=wrap;html=1;" vertex="1" parent="5pXr0R31rmwVF_x6JBgt-4">
          <mxGeometry x="85" y="1210" width="530" height="14.5" as="geometry" />
        </mxCell>
        <mxCell id="V2eRFCbEdA1scItEcbjX-121" style="edgeStyle=orthogonalEdgeStyle;rounded=0;orthogonalLoop=1;jettySize=auto;html=1;exitX=1;exitY=0.5;exitDx=0;exitDy=0;entryX=0.5;entryY=0;entryDx=0;entryDy=0;endArrow=none;endFill=0;" edge="1" parent="5pXr0R31rmwVF_x6JBgt-4">
          <mxGeometry relative="1" as="geometry">
            <mxPoint x="414.5" y="1256.5" as="sourcePoint" />
            <mxPoint x="646.3300000000003" y="1282.75" as="targetPoint" />
            <Array as="points">
              <mxPoint x="415" y="1258" />
              <mxPoint x="646" y="1258" />
            </Array>
          </mxGeometry>
        </mxCell>
        <mxCell id="V2eRFCbEdA1scItEcbjX-122" style="edgeStyle=orthogonalEdgeStyle;rounded=0;orthogonalLoop=1;jettySize=auto;html=1;exitX=0;exitY=0.5;exitDx=0;exitDy=0;endArrow=none;endFill=0;entryX=0.5;entryY=0;entryDx=0;entryDy=0;" edge="1" parent="5pXr0R31rmwVF_x6JBgt-4" source="V2eRFCbEdA1scItEcbjX-60" target="V2eRFCbEdA1scItEcbjX-61">
          <mxGeometry relative="1" as="geometry">
            <mxPoint x="110" y="1266.8333333333335" as="targetPoint" />
          </mxGeometry>
        </mxCell>
        <mxCell id="V2eRFCbEdA1scItEcbjX-60" value="&lt;font style=&quot;font-size: 10px;&quot;&gt;menorCantInscripcion == -1&lt;/font&gt;" style="rhombus;whiteSpace=wrap;html=1;" vertex="1" parent="5pXr0R31rmwVF_x6JBgt-4">
          <mxGeometry x="250" y="1237" width="164.5" height="41" as="geometry" />
        </mxCell>
        <mxCell id="V2eRFCbEdA1scItEcbjX-61" value="&lt;font style=&quot;font-size: 10px;&quot;&gt;menorCantInscripcion = contadorCarrera&lt;/font&gt;" style="rounded=0;whiteSpace=wrap;html=1;" vertex="1" parent="5pXr0R31rmwVF_x6JBgt-4">
          <mxGeometry x="19" y="1277.25" width="190" height="21" as="geometry" />
        </mxCell>
        <mxCell id="V2eRFCbEdA1scItEcbjX-114" value="&lt;font style=&quot;font-size: 10px;&quot;&gt;carreraMenosInsc = codigoActualCarrera&lt;/font&gt;" style="rounded=0;whiteSpace=wrap;html=1;" vertex="1" parent="5pXr0R31rmwVF_x6JBgt-4">
          <mxGeometry x="19" y="1304" width="191" height="21" as="geometry" />
        </mxCell>
        <mxCell id="V2eRFCbEdA1scItEcbjX-126" style="edgeStyle=orthogonalEdgeStyle;rounded=0;orthogonalLoop=1;jettySize=auto;html=1;entryX=0.463;entryY=0.19;entryDx=0;entryDy=0;entryPerimeter=0;endArrow=none;endFill=0;" edge="1" parent="5pXr0R31rmwVF_x6JBgt-4" source="V2eRFCbEdA1scItEcbjX-115" target="V2eRFCbEdA1scItEcbjX-124">
          <mxGeometry relative="1" as="geometry">
            <mxPoint x="450" y="1312" as="targetPoint" />
            <Array as="points">
              <mxPoint x="450" y="1312" />
            </Array>
          </mxGeometry>
        </mxCell>
        <mxCell id="V2eRFCbEdA1scItEcbjX-133" style="edgeStyle=orthogonalEdgeStyle;rounded=0;orthogonalLoop=1;jettySize=auto;html=1;exitX=1;exitY=0.5;exitDx=0;exitDy=0;entryX=0.457;entryY=1.036;entryDx=0;entryDy=0;entryPerimeter=0;endArrow=none;endFill=0;" edge="1" parent="5pXr0R31rmwVF_x6JBgt-4" source="V2eRFCbEdA1scItEcbjX-115" target="V2eRFCbEdA1scItEcbjX-125">
          <mxGeometry relative="1" as="geometry">
            <Array as="points">
              <mxPoint x="740" y="1393" />
              <mxPoint x="449" y="1393" />
            </Array>
          </mxGeometry>
        </mxCell>
        <mxCell id="V2eRFCbEdA1scItEcbjX-115" value="contadorCarrera &amp;lt; menorCantInscripcion" style="rhombus;whiteSpace=wrap;html=1;" vertex="1" parent="5pXr0R31rmwVF_x6JBgt-4">
          <mxGeometry x="553" y="1283.75" width="186.5" height="55.5" as="geometry" />
        </mxCell>
        <mxCell id="V2eRFCbEdA1scItEcbjX-124" value="&lt;font style=&quot;font-size: 10px;&quot;&gt;menorCantInscripcion = contadorCarrera&lt;/font&gt;" style="rounded=0;whiteSpace=wrap;html=1;" vertex="1" parent="5pXr0R31rmwVF_x6JBgt-4">
          <mxGeometry x="362" y="1325" width="190" height="21" as="geometry" />
        </mxCell>
        <mxCell id="V2eRFCbEdA1scItEcbjX-125" value="&lt;font style=&quot;font-size: 10px;&quot;&gt;carreraMenosInsc = codigoActualCarrera&lt;/font&gt;" style="rounded=0;whiteSpace=wrap;html=1;" vertex="1" parent="5pXr0R31rmwVF_x6JBgt-4">
          <mxGeometry x="362" y="1351.75" width="191" height="21" as="geometry" />
        </mxCell>
        <mxCell id="5gnvTc-YlHs9Nw9wisjp-32" style="edgeStyle=orthogonalEdgeStyle;rounded=0;orthogonalLoop=1;jettySize=auto;html=1;exitX=0.5;exitY=1;exitDx=0;exitDy=0;entryX=0.5;entryY=0;entryDx=0;entryDy=0;entryPerimeter=0;fillColor=#dae8fc;strokeColor=#6c8ebf;" parent="WIyWlLk6GJQsqaUBKTNV-1" source="5gnvTc-YlHs9Nw9wisjp-0" edge="1">
          <mxGeometry relative="1" as="geometry">
            <mxPoint x="380" y="369" as="targetPoint" />
          </mxGeometry>
        </mxCell>
        <mxCell id="5gnvTc-YlHs9Nw9wisjp-0" value="maximasInscripcionesADistancia = 0" style="whiteSpace=wrap;html=1;fillColor=#f8cecc;strokeColor=#b85450;" parent="WIyWlLk6GJQsqaUBKTNV-1" vertex="1">
          <mxGeometry x="278.13" y="319" width="203.75" height="30" as="geometry" />
        </mxCell>
        <mxCell id="5gnvTc-YlHs9Nw9wisjp-47" value="" style="edgeStyle=orthogonalEdgeStyle;rounded=0;orthogonalLoop=1;jettySize=auto;html=1;fillColor=#dae8fc;strokeColor=#6c8ebf;" parent="WIyWlLk6GJQsqaUBKTNV-1" target="5gnvTc-YlHs9Nw9wisjp-46" edge="1">
          <mxGeometry relative="1" as="geometry">
            <mxPoint x="380" y="1880" as="sourcePoint" />
          </mxGeometry>
        </mxCell>
        <mxCell id="5gnvTc-YlHs9Nw9wisjp-29" value="carrerasMasInscripcionesADistancia&amp;nbsp;" style="shape=trapezoid;perimeter=trapezoidPerimeter;whiteSpace=wrap;html=1;fixedSize=1;fillColor=#f8cecc;strokeColor=#b85450;" parent="WIyWlLk6GJQsqaUBKTNV-1" vertex="1">
          <mxGeometry x="270" y="1947" width="220" height="30" as="geometry" />
        </mxCell>
        <mxCell id="5gnvTc-YlHs9Nw9wisjp-46" value="F" style="ellipse;whiteSpace=wrap;html=1;fillColor=#dae8fc;strokeColor=#6c8ebf;" parent="WIyWlLk6GJQsqaUBKTNV-1" vertex="1">
          <mxGeometry x="355" y="2020" width="50" height="45" as="geometry" />
        </mxCell>
        <mxCell id="V2eRFCbEdA1scItEcbjX-28" value="" style="endArrow=classic;html=1;rounded=0;exitX=0.5;exitY=1;exitDx=0;exitDy=0;" edge="1" parent="WIyWlLk6GJQsqaUBKTNV-1" source="V2eRFCbEdA1scItEcbjX-25">
          <mxGeometry width="50" height="50" relative="1" as="geometry">
            <mxPoint x="368" y="900" as="sourcePoint" />
            <mxPoint x="370" y="920" as="targetPoint" />
          </mxGeometry>
        </mxCell>
        <mxCell id="V2eRFCbEdA1scItEcbjX-118" value="menorCantInscripcion = -1" style="rounded=0;whiteSpace=wrap;html=1;" vertex="1" parent="WIyWlLk6GJQsqaUBKTNV-1">
          <mxGeometry x="414" y="220" width="220" height="21" as="geometry" />
        </mxCell>
      </root>
    </mxGraphModel>
  </diagram>
</mxfile>
